<?xml version="1.0" encoding="iso-8859-1"?>
<!-- Uploaded to: SVG Repo, www.svgrepo.com, Generator: SVG Repo Mixer Tools -->
<!DOCTYPE svg PUBLIC "-//W3C//DTD SVG 1.1//EN" "http://www.w3.org/Graphics/SVG/1.1/DTD/svg11.dtd">
<svg fill="#000000" version="1.1" id="Capa_1" xmlns="http://www.w3.org/2000/svg" xmlns:xlink="http://www.w3.org/1999/xlink" 
	 width="800px" height="800px" viewBox="0 0 95.098 95.098"
	 xml:space="preserve">
<g>
	<g>
		<path d="M92.961,0H2.137C0.959,0,0,0.958,0,2.137v90.824c0,1.178,0.959,2.137,2.137,2.137h90.824c1.178,0,2.137-0.958,2.137-2.137
			V2.137C95.098,0.959,94.139,0,92.961,0z M86.1,86.1H8.998V8.998H86.1V86.1z"/>
		<path d="M51.006,72.305h-6.928c-0.777,0-1.409,0.631-1.409,1.409v6.224c0,0.779,0.632,1.41,1.409,1.41h6.928
			c0.779,0,1.41-0.631,1.41-1.41v-6.224C52.416,72.936,51.785,72.305,51.006,72.305z"/>
		<path d="M28.177,35.242h7.055c0.747,0,1.364-0.583,1.407-1.33c0.326-5.774,5.117-10.297,10.903-10.297
			c6.022,0,10.923,4.899,10.923,10.922c0,3.657-1.41,5.01-4.885,7.985c-4.539,3.885-10.757,9.207-10.965,22.81
			c-0.006,0.377,0.141,0.74,0.406,1.01c0.264,0.27,0.626,0.421,1.004,0.421h7.047c0.769,0,1.396-0.616,1.408-1.385
			c0.155-9.063,3.402-11.843,7.516-15.363c3.713-3.178,8.334-7.133,8.334-15.478c0-11.462-9.325-20.787-20.788-20.787
			c-11.244,0-20.369,8.799-20.773,20.032c-0.014,0.383,0.129,0.754,0.394,1.029C27.429,35.086,27.794,35.242,28.177,35.242z"/>
	</g>
</g>
</svg>